<svg xmlns="http://www.w3.org/2000/svg" width="11" height="10.639" viewBox="0 0 11 10.639" preserveAspectRatio="xMinYMin meet">
<title>Download</title>
  <g id="download-svgrepo-com" transform="translate(-2.7 -39.75)">
    <path id="Path_222" data-name="Path 222" d="M153.419,47.982a.453.453,0,0,0,.758,0l2.735-3.606a.3.3,0,0,0-.261-.526H155.6a.515.515,0,0,1-.514-.514V40.361a.612.612,0,0,0-.611-.611h-1.36a.612.612,0,0,0-.611.611v2.974a.515.515,0,0,1-.514.514h-1.047a.3.3,0,0,0-.261.526Z" transform="translate(-145.598 0)" fill="#63646a"/>
    <path id="Path_223" data-name="Path 223" d="M9.565,294.16v2.391H1.435V294.16H0v3.28a.547.547,0,0,0,.547.547h9.907A.547.547,0,0,0,11,297.44v-3.28Z" transform="translate(2.7 -247.597)" fill="#63646a"/>
  </g>
</svg>
