<svg xmlns="http://www.w3.org/2000/svg" width="18.003" height="14" viewBox="0 0 18.003 14" preserveAspectRatio="xMinYMin meet">
<title>Painel</title>
  <path id="home-solid" d="M8.748,35.682,2.986,40.428V45.55a.5.5,0,0,0,.5.5l3.5-.009a.5.5,0,0,0,.5-.5V42.55a.5.5,0,0,1,.5-.5h2a.5.5,0,0,1,.5.5v2.989a.5.5,0,0,0,.5.5l3.5.01a.5.5,0,0,0,.5-.5V40.424L9.226,35.682a.381.381,0,0,0-.478,0Zm9.1,3.226-2.613-2.154V32.425a.375.375,0,0,0-.375-.375h-1.75a.375.375,0,0,0-.375.375v2.269l-2.8-2.3a1.5,1.5,0,0,0-1.906,0L.121,38.908a.375.375,0,0,0-.05.528l.8.969a.375.375,0,0,0,.528.051L8.748,34.4a.381.381,0,0,1,.478,0l7.352,6.055a.375.375,0,0,0,.528-.05l.8-.969a.375.375,0,0,0-.053-.529Z" transform="translate(0.015 -32.05)" fill="#63646a"/>
</svg>
