<svg xmlns="http://www.w3.org/2000/svg" width="16" height="17.455" viewBox="0 0 16 17.455" preserveAspectRatio="xMinYMin meet">
<title>Notas</title>
  <path id="files-svgrepo-com_1_" data-name="files-svgrepo-com(1)" d="M10.909,2.909h2.909A2.182,2.182,0,0,1,16,5.091V15.273a2.182,2.182,0,0,1-2.182,2.182H7.273a2.182,2.182,0,0,1-2.182-2.182v-.727H2.182A2.182,2.182,0,0,1,0,12.364v-8A4.364,4.364,0,0,1,4.364,0H8.727a2.182,2.182,0,0,1,2.182,2.182Zm0,1.455v8a2.182,2.182,0,0,1-2.182,2.182H6.545v.727A.727.727,0,0,0,7.273,16h6.545a.727.727,0,0,0,.727-.727V5.091a.727.727,0,0,0-.727-.727Zm-9.455.727v7.273a.727.727,0,0,0,.727.727H8.727a.727.727,0,0,0,.727-.727V2.182a.727.727,0,0,0-.727-.727H5.091V4.364a.727.727,0,0,1-.727.727Zm.092-1.455h2.09V1.546A2.914,2.914,0,0,0,1.546,3.636Z" fill="#63646a" fill-rule="evenodd"/>
</svg>
