<svg xmlns="http://www.w3.org/2000/svg" width="7" height="7" viewBox="0 0 7 7" preserveAspectRatio="xMinYMin meet">
<title>Parar</title>
  <g id="pause-svgrepo-com" transform="translate(-2 -2)">
    <path id="Path_227" data-name="Path 227" d="M2,3.4c0-.66,0-.99.205-1.195S2.74,2,3.4,2s.99,0,1.195.205S4.8,2.74,4.8,3.4V7.6c0,.66,0,.99-.205,1.195S4.06,9,3.4,9s-.99,0-1.195-.205S2,8.26,2,7.6Z" fill="#63646a"/>
    <path id="Path_228" data-name="Path 228" d="M14,3.4c0-.66,0-.99.205-1.195S14.74,2,15.4,2s.99,0,1.195.205S16.8,2.74,16.8,3.4V7.6c0,.66,0,.99-.205,1.195S16.06,9,15.4,9s-.99,0-1.195-.205S14,8.26,14,7.6Z" transform="translate(-7.8)" fill="#63646a"/>
  </g>
</svg>
