<svg xmlns="http://www.w3.org/2000/svg" width="17" height="13.333" viewBox="0 0 17 13.333" preserveAspectRatio="xMinYMin meet">
<title>Projetos</title>
  <g id="Group_789" data-name="Group 789" transform="translate(-43 -270)">
    <path id="Path_242" data-name="Path 242" d="M4.129,17.393H2.75V7.279A2.492,2.492,0,0,1,5.214,4.75H7.43a.7.7,0,0,1,.533.23l2.455,2.97h4.515a2.492,2.492,0,0,1,2.5,2.547v.46H16.055V10.5a1.122,1.122,0,0,0-1.122-1.149H10.088A.68.68,0,0,1,9.564,9.1L7.108,6.129H5.214A1.122,1.122,0,0,0,4.129,7.279Z" transform="translate(40.25 265.25)" fill="#63646a"/>
    <path id="Path_243" data-name="Path 243" d="M15.964,18.606H3.441a.7.7,0,0,1-.588-.331.69.69,0,0,1,0-.68L5.96,11.618a.708.708,0,0,1,.616-.368h12.5a.7.7,0,0,1,.588.331.69.69,0,0,1,0,.68l-3.108,5.977a.708.708,0,0,1-.588.368ZM4.572,17.227H15.551l2.391-4.6H6.962Z" transform="translate(40.249 264.727)" fill="#63646a"/>
  </g>
</svg>
