<svg xmlns="http://www.w3.org/2000/svg" width="14" height="14" viewBox="0 0 14 14" preserveAspectRatio="xMinYMin meet">
<title>Usuários</title>
  <path id="user-svgrepo-com_2_" data-name="user-svgrepo-com(2)" d="M6.889,7.667A3.111,3.111,0,1,1,10,10.777,3.111,3.111,0,0,1,6.889,7.667Zm6.085,3.6a4.667,4.667,0,1,0-5.949,0C4.544,12.135,3,14.081,3,16.223a.778.778,0,1,0,1.556,0c0-1.766,1.831-3.889,5.444-3.889s5.444,2.124,5.444,3.889a.778.778,0,0,0,1.556,0C17,14.081,15.457,12.135,12.975,11.263Z" transform="translate(-3 -3)" fill="#63646a" fill-rule="evenodd"/>
</svg>
