<svg xmlns="http://www.w3.org/2000/svg" width="15" height="15" viewBox="0 0 15 15" preserveAspectRatio="xMinYMin meet">
<title>Usuário</title>
  <path id="user-svgrepo-com_2_" data-name="user-svgrepo-com(2)" d="M7.167,8A3.333,3.333,0,1,1,10.5,11.333,3.333,3.333,0,0,1,7.167,8Zm6.52,3.853a5,5,0,1,0-6.374,0C4.654,12.788,3,14.873,3,17.167a.833.833,0,0,0,1.667,0C4.667,15.275,6.629,13,10.5,13s5.833,2.276,5.833,4.167a.833.833,0,0,0,1.667,0C18,14.873,16.347,12.788,13.687,11.853Z" transform="translate(-3 -3)" fill="#63646a" fill-rule="evenodd"/>
</svg>
