<svg xmlns="http://www.w3.org/2000/svg" width="11" height="10.639" preserveAspectRatio="xMinYMin meet" viewBox="0 0 11 10.639"><title>Download</title><g fill="#63646a"><path d="M5.121 8.232a.453.453 0 0 0 .758 0l2.735-3.606a.3.3 0 0 0-.261-.526H7.302a.515.515 0 0 1-.514-.514V.611A.61.61 0 0 0 6.177 0h-1.36a.61.61 0 0 0-.611.611v2.974a.515.515 0 0 1-.514.514H2.645a.3.3 0 0 0-.261.526Z"/><path d="M9.565 6.813v2.391h-8.13V6.813H0v3.28a.547.547 0 0 0 .547.547h9.907a.547.547 0 0 0 .546-.547v-3.28Z"/></g></svg>