<svg xmlns="http://www.w3.org/2000/svg" width="18.003" height="14" preserveAspectRatio="xMinYMin meet" viewBox="0 0 18.003 14"><title>Painel</title><path fill="#63646a" d="M8.763 3.632 3.001 8.378V13.5a.5.5 0 0 0 .5.5l3.5-.009a.5.5 0 0 0 .5-.5V10.5a.5.5 0 0 1 .5-.5h2a.5.5 0 0 1 .5.5v2.989a.5.5 0 0 0 .5.5l3.5.01a.5.5 0 0 0 .5-.5V8.374l-5.76-4.742a.38.38 0 0 0-.478 0m9.1 3.226L15.25 4.704V.375A.375.375 0 0 0 14.875 0h-1.75a.375.375 0 0 0-.375.375v2.269l-2.8-2.3a1.5 1.5 0 0 0-1.906 0L.136 6.858a.375.375 0 0 0-.05.528l.8.969a.375.375 0 0 0 .528.051L8.763 2.35a.38.38 0 0 1 .478 0l7.352 6.055a.375.375 0 0 0 .528-.05l.8-.969a.375.375 0 0 0-.053-.529Z"/></svg>