<svg xmlns="http://www.w3.org/2000/svg" width="16" height="17.455" preserveAspectRatio="xMinYMin meet" viewBox="0 0 16 17.455"><title>Notas</title><path fill="#63646a" fill-rule="evenodd" d="M10.909 2.909h2.909A2.18 2.18 0 0 1 16 5.091v10.182a2.18 2.18 0 0 1-2.182 2.182H7.273a2.18 2.18 0 0 1-2.182-2.182v-.727H2.182A2.18 2.18 0 0 1 0 12.364v-8A4.364 4.364 0 0 1 4.364 0h4.363a2.18 2.18 0 0 1 2.182 2.182Zm0 1.455v8a2.18 2.18 0 0 1-2.182 2.182H6.545v.727a.727.727 0 0 0 .728.727h6.545a.727.727 0 0 0 .727-.727V5.091a.727.727 0 0 0-.727-.727Zm-9.455.727v7.273a.727.727 0 0 0 .727.727h6.546a.727.727 0 0 0 .727-.727V2.182a.727.727 0 0 0-.727-.727H5.091v2.909a.727.727 0 0 1-.727.727Zm.092-1.455h2.09v-2.09a2.91 2.91 0 0 0-2.09 2.09"/></svg>