<svg xmlns="http://www.w3.org/2000/svg" width="17" height="13.333" preserveAspectRatio="xMinYMin meet" viewBox="0 0 17 13.333"><title>Projetos</title><g fill="#63646a"><path d="M1.379 12.643H0V2.529A2.49 2.49 0 0 1 2.464 0H4.68a.7.7 0 0 1 .533.23L7.668 3.2h4.515a2.49 2.49 0 0 1 2.5 2.547v.46h-1.378V5.75a1.12 1.12 0 0 0-1.122-1.149H7.338a.68.68 0 0 1-.524-.251L4.358 1.379H2.464a1.12 1.12 0 0 0-1.085 1.15Z"/><path d="M13.213 13.333H.69a.7.7 0 0 1-.588-.331.69.69 0 0 1 0-.68l3.107-5.977a.71.71 0 0 1 .616-.368h12.5a.7.7 0 0 1 .588.331.69.69 0 0 1 0 .68l-3.108 5.977a.71.71 0 0 1-.588.368ZM1.821 11.954H12.8l2.391-4.6H4.211Z"/></g></svg>