<svg xmlns="http://www.w3.org/2000/svg" width="114.81" height="30" viewBox="0 0 114.81 30" preserveAspectRatio="xMinYMin meet">
<title>Tarefácil</title>
  <g id="Group_751" data-name="Group 751" transform="translate(-304.017 231.022)">
    <path id="Path_39" data-name="Path 39" d="M409.176,26.15a8.283,8.283,0,0,1-2.131-.289,5.064,5.064,0,0,1-1.95-1.011,5.617,5.617,0,0,1-1.427-1.86,6.615,6.615,0,0,1-.56-2.908V5.923a6.293,6.293,0,0,1,.433-2.348A5.554,5.554,0,0,1,404.77,1.7a5.733,5.733,0,0,1,1.9-1.246A6.4,6.4,0,0,1,409.1,0a6.3,6.3,0,0,1,2.357.424A5.325,5.325,0,0,1,413.33,1.7a6.057,6.057,0,0,1,1.246,1.968,6.681,6.681,0,0,1,.451,2.474V7.585h-3.684V6.357a3,3,0,0,0-.614-1.878,2.009,2.009,0,0,0-.722-.6,2.16,2.16,0,0,0-.939-.2,2.718,2.718,0,0,0-1.142.212,1.438,1.438,0,0,0-.682.637,4.567,4.567,0,0,0-.452,2.149V19.829a3.42,3.42,0,0,0,.488,1.878,1.5,1.5,0,0,0,.682.569,2.8,2.8,0,0,0,1.847.063,2.33,2.33,0,0,0,.777-.415,2.214,2.214,0,0,0,.542-.795,3.233,3.233,0,0,0,.217-1.264V18.6h3.684V20.19a5.753,5.753,0,0,1-.451,2.257,6.273,6.273,0,0,1-1.246,1.9,6.034,6.034,0,0,1-1.86,1.318A5.471,5.471,0,0,1,409.176,26.15Zm27.2-.217h-10.98V.217h3.684V22.249h7.3v3.684Zm-14.556,0h-3.684V.217h3.684Z" transform="translate(-17.051 -230.522)" fill="#63646a" stroke="rgba(0,0,0,0)" stroke-width="1"/>
    <path id="Path_40" data-name="Path 40" d="M39.767,26.79h-3.9L32.434,15.81h-2.2V26.79H26.547V1.074H32.47a7.893,7.893,0,0,1,2.844.472,5.049,5.049,0,0,1,2.032,1.415A6.193,6.193,0,0,1,38.565,5.32a12.078,12.078,0,0,1,.406,3.3,9.559,9.559,0,0,1-.7,3.865,4.959,4.959,0,0,1-.971,1.436,6.31,6.31,0,0,1-1.5,1.129L39.766,26.79ZM30.231,4.541v8.018h2.095a3.723,3.723,0,0,0,1.553-.271,2.12,2.12,0,0,0,.9-.777,3.546,3.546,0,0,0,.4-1.246,12.039,12.039,0,0,0,.108-1.716,12.034,12.034,0,0,0-.108-1.716,3.449,3.449,0,0,0-.433-1.282,2.071,2.071,0,0,0-.993-.759,4.479,4.479,0,0,0-1.607-.253ZM24.741,26.79H21.057l-1.083-5.526H14.953L13.869,26.79H10.185L15.928,1.074H19L24.741,26.79ZM17.409,8.478,15.6,17.8h3.684L17.481,8.478ZM58.981,26.79H55.3V1.074h10.98V4.541h-7.3v7.8h6.357V15.81H58.981Zm-6.068,0H41.933V1.074h10.98V4.541h-7.3V12.09h6.357v3.467H45.618v7.549h7.3V26.79Zm-44.967,0H4.262V4.541H0V1.074H12.208V4.541H7.946Z" transform="translate(304.517 -231.379)" fill="#63646a" stroke="rgba(0,0,0,0)" stroke-width="1"/>
    <path id="Path_41" data-name="Path 41" d="M43.579,25.717H39.9l-.487-2.495,2.956-2.948,1.215,5.443ZM31.428,23.145h0l-1.5-1.491L34.766,0h3.07l3.058,13.695-2.8,2.8L36.319,7.4h-.072L33.629,20.948l-2.2,2.2Z" transform="translate(340.889 -230.305)" fill="#63646a" stroke="rgba(0,0,0,0)" stroke-width="1"/>
    <path id="Path_42" data-name="Path 42" d="M0,20.417l10.563.417.023-17.142L6.894,0,6.879,17.15l-3.62.008Z" transform="translate(379.58 -222.74) rotate(45)" fill="#04a265"/>
  </g>
</svg>
