<svg xmlns="http://www.w3.org/2000/svg" width="115.805" height="30.5" preserveAspectRatio="xMinYMin meet" viewBox="0 0 115.805 30.5"><title>Tarefácil</title><path fill="#63646a" stroke="rgba(0,0,0,0)" d="M88.108 26.65a8.3 8.3 0 0 1-2.131-.289 5.1 5.1 0 0 1-1.95-1.011 5.6 5.6 0 0 1-1.427-1.86 6.6 6.6 0 0 1-.56-2.908V6.423a6.3 6.3 0 0 1 .433-2.348A5.6 5.6 0 0 1 83.702 2.2a5.7 5.7 0 0 1 1.9-1.246A6.4 6.4 0 0 1 88.032.5a6.3 6.3 0 0 1 2.357.424A5.3 5.3 0 0 1 92.262 2.2a6.1 6.1 0 0 1 1.246 1.968 6.7 6.7 0 0 1 .451 2.474v1.443h-3.684V6.857a3 3 0 0 0-.614-1.878 2 2 0 0 0-.722-.6 2.16 2.16 0 0 0-.939-.2 2.7 2.7 0 0 0-1.142.212 1.44 1.44 0 0 0-.682.637 4.6 4.6 0 0 0-.452 2.149v13.152a3.4 3.4 0 0 0 .488 1.878 1.5 1.5 0 0 0 .682.569 2.8 2.8 0 0 0 1.847.063 2.3 2.3 0 0 0 .777-.415 2.2 2.2 0 0 0 .542-.795 3.2 3.2 0 0 0 .217-1.264V19.1h3.684v1.59a5.8 5.8 0 0 1-.451 2.257 6.3 6.3 0 0 1-1.246 1.9 6 6 0 0 1-1.86 1.318 5.5 5.5 0 0 1-2.296.485Zm27.2-.217h-10.98V.717h3.684v22.032h7.3v3.684Zm-14.556 0h-3.684V.717h3.684Z"/><path fill="#63646a" stroke="rgba(0,0,0,0)" d="M40.267 26.433h-3.9l-3.433-10.98h-2.2v10.98h-3.687V.717h5.923a7.9 7.9 0 0 1 2.844.472 5.05 5.05 0 0 1 2.032 1.415 6.2 6.2 0 0 1 1.219 2.359 12 12 0 0 1 .406 3.3 9.6 9.6 0 0 1-.7 3.865 5 5 0 0 1-.971 1.436 6.3 6.3 0 0 1-1.5 1.129zM30.731 4.184v8.018h2.095a3.7 3.7 0 0 0 1.553-.271 2.1 2.1 0 0 0 .9-.777 3.6 3.6 0 0 0 .4-1.246 12 12 0 0 0 .108-1.716 12 12 0 0 0-.108-1.716 3.5 3.5 0 0 0-.433-1.282 2.07 2.07 0 0 0-.993-.759 4.5 4.5 0 0 0-1.607-.253Zm-5.49 22.249h-3.684l-1.083-5.526h-5.021l-1.084 5.526h-3.684L16.428.717H19.5zM17.909 8.121 16.1 17.443h3.684l-1.803-9.322Zm41.572 18.312H55.8V.717h10.98v3.467h-7.3v7.8h6.357v3.469h-6.356Zm-6.068 0h-10.98V.717h10.98v3.467h-7.3v7.549h6.357V15.2h-6.352v7.549h7.3v3.684Zm-44.967 0H4.762V4.184H.5V.717h12.208v3.467H8.446Z"/><path fill="#63646a" stroke="rgba(0,0,0,0)" d="M80.451 26.434h-3.679l-.487-2.495 2.956-2.948 1.215 5.443ZM68.3 23.862l-1.5-1.491L71.638.717h3.07l3.058 13.695-2.8 2.8-1.775-9.095h-.072l-2.618 13.548-2.2 2.2Z"/><path fill="#04a265" d="m61.126 22.719 7.174 7.764 12.138-12.105v-5.221L68.3 25.273l-2.565-2.554Z"/></svg>